<?xml version="1.0" encoding="UTF-8" standalone="no"?>
<!DOCTYPE svg PUBLIC "-//W3C//DTD SVG 20010904//EN" "http://www.w3.org/TR/2001/REC-SVG-20010904/DTD/svg10.dtd">
<svg version="1.0" xmlns="http://www.w3.org/2000/svg" width="445.000000pt" height="121.000000pt" viewBox="0 0 445.000000 121.000000" preserveAspectRatio="xMidYMid meet">
<metadata>
Created by potrace 1.15, written by Peter Selinger 2001-2017
</metadata>
<g transform="translate(0.000000,121.000000) scale(0.100000,-0.100000)" fill="#000000" stroke="none">
<path d="M3830 635 l0 -455 80 0 79 0 3 128 3 127 40 3 c54 5 99 -5 127 -27 21 -17 23 -29 28 -128 l5 -108 80 0 80 0 3 89 c5 167 -26 237 -119 265 -26 8 -38 16 -29 19 37 12 87 90 143 225 l16 37 -92 0 -93 0 -39 -86 c-45 -100 -66 -124 -112 -124 l-33 0 0 245 0 245 -85 0 -85 0 0 -455z"/>
<path d="M1452 653 c3 -327 3 -328 28 -377 38 -76 65 -90 171 -94 l89 -4 0 80 0 79 -47 6 c-68 7 -73 18 -73 174 l0 133 60 0 60 0 0 80 0 80 -60 0 -60 0 0 85 0 85 -86 0 -86 0 4 -327z"/>
<path d="M350 817 c-71 -16 -123 -49 -152 -95 -22 -36 -23 -46 -26 -289 l-3 -253 85 0 86 0 0 213 c1 151 4 217 13 228 34 44 102 51 144 15 l28 -24 3 -216 3 -216 80 0 79 0 0 246 c0 274 -3 290 -67 343 -60 49 -176 70 -273 48z"/>
<path d="M1012 820 c-114 -17 -196 -79 -244 -187 -34 -74 -32 -208 3 -283 36 -77 81 -124 147 -156 48 -23 70 -28 142 -28 72 0 94 4 145 27 78 36 130 87 166 162 41 85 39 91 -23 99 -103 12 -111 10 -133 -37 -32 -68 -144 -110 -206 -76 -18 9 1 26 166 151 102 77 185 146 185 153 0 22 -63 98 -105 127 -60 41 -159 60 -243 48z m109 -177 c7 -7 -25 -38 -98 -96 l-108 -85 -3 38 c-4 50 29 114 71 141 24 15 44 19 80 16 27 -2 53 -9 58 -14z"/>
<path d="M2960 816 c-60 -17 -84 -31 -132 -74 -64 -58 -91 -121 -96 -227 -3 -74 0 -100 17 -146 29 -75 88 -141 159 -176 48 -24 69 -28 137 -27 105 0 167 27 234 100 61 66 85 133 85 229 0 41 -7 91 -18 123 -24 70 -100 153 -166 181 -63 27 -160 35 -220 17z m150 -172 c57 -23 85 -72 85 -149 0 -73 -25 -122 -75 -147 -116 -59 -239 28 -227 158 7 69 30 110 75 133 45 25 89 26 142 5z"/>
<path d="M3696 810 c-34 -11 -71 -43 -97 -85 l-19 -30 0 58 0 57 -80 0 -80 0 0 -315 0 -315 90 0 90 0 0 178 c0 153 3 182 18 212 22 42 73 70 125 70 l38 0 -3 88 c-3 85 -4 87 -28 89 -14 1 -38 -2 -54 -7z"/>
<path d="M1800 581 c0 -250 7 -290 58 -345 54 -57 169 -88 250 -67 24 7 59 28 84 51 23 22 44 40 48 40 4 0 17 -12 31 -26 35 -37 90 -63 151 -70 105 -12 221 60 247 153 6 22 11 136 11 266 l0 227 -90 0 -90 0 0 -214 c0 -245 -2 -253 -77 -263 -35 -5 -45 -2 -67 20 l-26 26 0 216 0 215 -90 0 -90 0 0 -215 c0 -216 0 -216 -25 -240 -33 -34 -87 -34 -120 0 -25 24 -25 24 -25 240 l0 215 -90 0 -90 0 0 -229z"/>
</g>
</svg>